<mxfile host="Electron" modified="2025-03-14T10:31:10.750Z" agent="Mozilla/5.0 (Windows NT 10.0; Win64; x64) AppleWebKit/537.36 (KHTML, like Gecko) draw.io/22.0.2 Chrome/114.0.5735.289 Electron/25.8.4 Safari/537.36" etag="Qgj_Ns434UnKkK-UL1Vo" version="22.0.2" type="device">
  <diagram name="Page-1" id="Y7jagJ3_5gfz6rWCHu0w">
    <mxGraphModel dx="1440" dy="721" grid="1" gridSize="10" guides="1" tooltips="1" connect="1" arrows="1" fold="1" page="1" pageScale="1" pageWidth="827" pageHeight="1169" math="0" shadow="0">
      <root>
        <mxCell id="0" />
        <mxCell id="1" parent="0" />
        <mxCell id="wJbA7BYbk_IVq136lt5I-24" style="edgeStyle=orthogonalEdgeStyle;rounded=0;orthogonalLoop=1;jettySize=auto;html=1;exitX=0.5;exitY=1;exitDx=0;exitDy=0;entryX=0.5;entryY=0;entryDx=0;entryDy=0;" edge="1" parent="1" source="wJbA7BYbk_IVq136lt5I-1" target="wJbA7BYbk_IVq136lt5I-2">
          <mxGeometry relative="1" as="geometry" />
        </mxCell>
        <mxCell id="wJbA7BYbk_IVq136lt5I-1" value="start" style="ellipse;whiteSpace=wrap;html=1;" vertex="1" parent="1">
          <mxGeometry x="80" y="280" width="80" height="60" as="geometry" />
        </mxCell>
        <mxCell id="wJbA7BYbk_IVq136lt5I-23" style="edgeStyle=orthogonalEdgeStyle;rounded=0;orthogonalLoop=1;jettySize=auto;html=1;exitX=0.5;exitY=1;exitDx=0;exitDy=0;entryX=0.5;entryY=0;entryDx=0;entryDy=0;" edge="1" parent="1" source="wJbA7BYbk_IVq136lt5I-2" target="wJbA7BYbk_IVq136lt5I-3">
          <mxGeometry relative="1" as="geometry" />
        </mxCell>
        <mxCell id="wJbA7BYbk_IVq136lt5I-2" value="split list of filepaths into 100 lists&amp;nbsp;" style="rounded=0;whiteSpace=wrap;html=1;" vertex="1" parent="1">
          <mxGeometry x="80" y="370" width="80" height="50" as="geometry" />
        </mxCell>
        <mxCell id="wJbA7BYbk_IVq136lt5I-3" value="scan system for system specs" style="rounded=0;whiteSpace=wrap;html=1;" vertex="1" parent="1">
          <mxGeometry x="80" y="440" width="80" height="50" as="geometry" />
        </mxCell>
        <mxCell id="wJbA7BYbk_IVq136lt5I-10" style="edgeStyle=orthogonalEdgeStyle;rounded=0;orthogonalLoop=1;jettySize=auto;html=1;exitX=0.5;exitY=1;exitDx=0;exitDy=0;entryX=0.5;entryY=0;entryDx=0;entryDy=0;" edge="1" parent="1" source="wJbA7BYbk_IVq136lt5I-4" target="wJbA7BYbk_IVq136lt5I-8">
          <mxGeometry relative="1" as="geometry" />
        </mxCell>
        <mxCell id="wJbA7BYbk_IVq136lt5I-11" style="edgeStyle=orthogonalEdgeStyle;rounded=0;orthogonalLoop=1;jettySize=auto;html=1;exitX=0.5;exitY=1;exitDx=0;exitDy=0;entryX=0.5;entryY=0;entryDx=0;entryDy=0;" edge="1" parent="1" source="wJbA7BYbk_IVq136lt5I-4" target="wJbA7BYbk_IVq136lt5I-7">
          <mxGeometry relative="1" as="geometry">
            <Array as="points">
              <mxPoint x="120" y="590" />
              <mxPoint x="20" y="590" />
            </Array>
          </mxGeometry>
        </mxCell>
        <mxCell id="wJbA7BYbk_IVq136lt5I-12" style="edgeStyle=orthogonalEdgeStyle;rounded=0;orthogonalLoop=1;jettySize=auto;html=1;exitX=0.5;exitY=1;exitDx=0;exitDy=0;" edge="1" parent="1" source="wJbA7BYbk_IVq136lt5I-4" target="wJbA7BYbk_IVq136lt5I-5">
          <mxGeometry relative="1" as="geometry">
            <Array as="points">
              <mxPoint x="120" y="590" />
              <mxPoint x="210" y="590" />
            </Array>
          </mxGeometry>
        </mxCell>
        <mxCell id="wJbA7BYbk_IVq136lt5I-13" style="edgeStyle=orthogonalEdgeStyle;rounded=0;orthogonalLoop=1;jettySize=auto;html=1;exitX=0.5;exitY=1;exitDx=0;exitDy=0;entryX=0.5;entryY=0;entryDx=0;entryDy=0;" edge="1" parent="1" source="wJbA7BYbk_IVq136lt5I-4" target="wJbA7BYbk_IVq136lt5I-6">
          <mxGeometry relative="1" as="geometry">
            <Array as="points">
              <mxPoint x="120" y="590" />
              <mxPoint x="320" y="590" />
            </Array>
          </mxGeometry>
        </mxCell>
        <mxCell id="wJbA7BYbk_IVq136lt5I-14" style="edgeStyle=orthogonalEdgeStyle;rounded=0;orthogonalLoop=1;jettySize=auto;html=1;exitX=0.5;exitY=1;exitDx=0;exitDy=0;entryX=0.5;entryY=0;entryDx=0;entryDy=0;" edge="1" parent="1" source="wJbA7BYbk_IVq136lt5I-4" target="wJbA7BYbk_IVq136lt5I-9">
          <mxGeometry relative="1" as="geometry">
            <Array as="points">
              <mxPoint x="120" y="590" />
              <mxPoint x="-80" y="590" />
            </Array>
          </mxGeometry>
        </mxCell>
        <mxCell id="wJbA7BYbk_IVq136lt5I-4" value="create encryption threads based on system specs" style="rounded=0;whiteSpace=wrap;html=1;" vertex="1" parent="1">
          <mxGeometry x="80" y="510" width="80" height="70" as="geometry" />
        </mxCell>
        <mxCell id="wJbA7BYbk_IVq136lt5I-5" value="ENC(list 1)" style="rounded=0;whiteSpace=wrap;html=1;" vertex="1" parent="1">
          <mxGeometry x="180" y="610" width="80" height="30" as="geometry" />
        </mxCell>
        <mxCell id="wJbA7BYbk_IVq136lt5I-6" value="ENC(list 1)" style="rounded=0;whiteSpace=wrap;html=1;" vertex="1" parent="1">
          <mxGeometry x="280" y="610" width="80" height="30" as="geometry" />
        </mxCell>
        <mxCell id="wJbA7BYbk_IVq136lt5I-7" value="ENC(list 1)" style="rounded=0;whiteSpace=wrap;html=1;" vertex="1" parent="1">
          <mxGeometry x="-20" y="610" width="80" height="30" as="geometry" />
        </mxCell>
        <mxCell id="wJbA7BYbk_IVq136lt5I-8" value="ENC(list 1)" style="rounded=0;whiteSpace=wrap;html=1;" vertex="1" parent="1">
          <mxGeometry x="80" y="610" width="80" height="30" as="geometry" />
        </mxCell>
        <mxCell id="wJbA7BYbk_IVq136lt5I-9" value="ENC(list 1)" style="rounded=0;whiteSpace=wrap;html=1;" vertex="1" parent="1">
          <mxGeometry x="-120" y="610" width="80" height="30" as="geometry" />
        </mxCell>
        <mxCell id="wJbA7BYbk_IVq136lt5I-16" value="th1" style="text;html=1;align=center;verticalAlign=middle;resizable=0;points=[];autosize=1;strokeColor=none;fillColor=none;" vertex="1" parent="1">
          <mxGeometry x="-110" y="585" width="40" height="30" as="geometry" />
        </mxCell>
        <mxCell id="wJbA7BYbk_IVq136lt5I-17" value="th2" style="text;html=1;align=center;verticalAlign=middle;resizable=0;points=[];autosize=1;strokeColor=none;fillColor=none;" vertex="1" parent="1">
          <mxGeometry x="-20" y="585" width="40" height="30" as="geometry" />
        </mxCell>
        <mxCell id="wJbA7BYbk_IVq136lt5I-18" value="th3" style="text;html=1;align=center;verticalAlign=middle;resizable=0;points=[];autosize=1;strokeColor=none;fillColor=none;" vertex="1" parent="1">
          <mxGeometry x="70" y="585" width="40" height="30" as="geometry" />
        </mxCell>
        <mxCell id="wJbA7BYbk_IVq136lt5I-20" value="th4" style="text;html=1;align=center;verticalAlign=middle;resizable=0;points=[];autosize=1;strokeColor=none;fillColor=none;" vertex="1" parent="1">
          <mxGeometry x="160" y="585" width="40" height="30" as="geometry" />
        </mxCell>
        <mxCell id="wJbA7BYbk_IVq136lt5I-22" value="th5" style="text;html=1;align=center;verticalAlign=middle;resizable=0;points=[];autosize=1;strokeColor=none;fillColor=none;" vertex="1" parent="1">
          <mxGeometry x="250" y="585" width="40" height="30" as="geometry" />
        </mxCell>
        <mxCell id="wJbA7BYbk_IVq136lt5I-31" value="next list" style="text;html=1;align=center;verticalAlign=middle;resizable=0;points=[];autosize=1;strokeColor=none;fillColor=none;" vertex="1" parent="1">
          <mxGeometry x="-140" y="660" width="60" height="30" as="geometry" />
        </mxCell>
        <mxCell id="wJbA7BYbk_IVq136lt5I-33" style="edgeStyle=orthogonalEdgeStyle;rounded=0;orthogonalLoop=1;jettySize=auto;html=1;exitX=0.5;exitY=1;exitDx=0;exitDy=0;entryX=0;entryY=0.5;entryDx=0;entryDy=0;" edge="1" parent="1" source="wJbA7BYbk_IVq136lt5I-9" target="wJbA7BYbk_IVq136lt5I-9">
          <mxGeometry relative="1" as="geometry">
            <Array as="points">
              <mxPoint x="-80" y="660" />
              <mxPoint x="-130" y="660" />
              <mxPoint x="-130" y="625" />
            </Array>
          </mxGeometry>
        </mxCell>
        <mxCell id="wJbA7BYbk_IVq136lt5I-34" style="edgeStyle=orthogonalEdgeStyle;rounded=0;orthogonalLoop=1;jettySize=auto;html=1;exitX=0.5;exitY=1;exitDx=0;exitDy=0;entryX=0;entryY=0.5;entryDx=0;entryDy=0;" edge="1" parent="1" source="wJbA7BYbk_IVq136lt5I-7" target="wJbA7BYbk_IVq136lt5I-7">
          <mxGeometry relative="1" as="geometry">
            <Array as="points">
              <mxPoint x="20" y="660" />
              <mxPoint x="-30" y="660" />
              <mxPoint x="-30" y="625" />
            </Array>
          </mxGeometry>
        </mxCell>
        <mxCell id="wJbA7BYbk_IVq136lt5I-35" style="edgeStyle=orthogonalEdgeStyle;rounded=0;orthogonalLoop=1;jettySize=auto;html=1;exitX=0.5;exitY=1;exitDx=0;exitDy=0;entryX=0;entryY=0.5;entryDx=0;entryDy=0;" edge="1" parent="1" source="wJbA7BYbk_IVq136lt5I-8" target="wJbA7BYbk_IVq136lt5I-8">
          <mxGeometry relative="1" as="geometry">
            <Array as="points">
              <mxPoint x="120" y="660" />
              <mxPoint x="70" y="660" />
              <mxPoint x="70" y="625" />
            </Array>
          </mxGeometry>
        </mxCell>
        <mxCell id="wJbA7BYbk_IVq136lt5I-36" style="edgeStyle=orthogonalEdgeStyle;rounded=0;orthogonalLoop=1;jettySize=auto;html=1;exitX=0.5;exitY=1;exitDx=0;exitDy=0;entryX=0;entryY=0.5;entryDx=0;entryDy=0;" edge="1" parent="1" source="wJbA7BYbk_IVq136lt5I-5" target="wJbA7BYbk_IVq136lt5I-5">
          <mxGeometry relative="1" as="geometry">
            <Array as="points">
              <mxPoint x="220" y="660" />
              <mxPoint x="170" y="660" />
              <mxPoint x="170" y="625" />
            </Array>
          </mxGeometry>
        </mxCell>
        <mxCell id="wJbA7BYbk_IVq136lt5I-37" style="edgeStyle=orthogonalEdgeStyle;rounded=0;orthogonalLoop=1;jettySize=auto;html=1;exitX=0.5;exitY=1;exitDx=0;exitDy=0;entryX=0;entryY=0.5;entryDx=0;entryDy=0;" edge="1" parent="1" source="wJbA7BYbk_IVq136lt5I-6" target="wJbA7BYbk_IVq136lt5I-6">
          <mxGeometry relative="1" as="geometry">
            <Array as="points">
              <mxPoint x="320" y="660" />
              <mxPoint x="270" y="660" />
              <mxPoint x="270" y="625" />
            </Array>
          </mxGeometry>
        </mxCell>
        <mxCell id="wJbA7BYbk_IVq136lt5I-38" value="next list" style="text;html=1;align=center;verticalAlign=middle;resizable=0;points=[];autosize=1;strokeColor=none;fillColor=none;" vertex="1" parent="1">
          <mxGeometry x="-40" y="660" width="60" height="30" as="geometry" />
        </mxCell>
        <mxCell id="wJbA7BYbk_IVq136lt5I-39" value="next list" style="text;html=1;align=center;verticalAlign=middle;resizable=0;points=[];autosize=1;strokeColor=none;fillColor=none;" vertex="1" parent="1">
          <mxGeometry x="60" y="660" width="60" height="30" as="geometry" />
        </mxCell>
        <mxCell id="wJbA7BYbk_IVq136lt5I-40" value="next list" style="text;html=1;align=center;verticalAlign=middle;resizable=0;points=[];autosize=1;strokeColor=none;fillColor=none;" vertex="1" parent="1">
          <mxGeometry x="160" y="660" width="60" height="30" as="geometry" />
        </mxCell>
        <mxCell id="wJbA7BYbk_IVq136lt5I-41" value="next list" style="text;html=1;align=center;verticalAlign=middle;resizable=0;points=[];autosize=1;strokeColor=none;fillColor=none;" vertex="1" parent="1">
          <mxGeometry x="260" y="660" width="60" height="30" as="geometry" />
        </mxCell>
      </root>
    </mxGraphModel>
  </diagram>
</mxfile>
